<svg xmlns="http://www.w3.org/2000/svg" width="19.184" height="19.184" viewBox="0 0 19.184 19.184">
  <g id="check-mark-select" transform="translate(-11 -136)">
    <circle id="Ellipse_374" data-name="Ellipse 374" cx="8.5" cy="8.5" r="8.5" transform="translate(12 137)" fill="#fff"/>
    <path id="check-mark" d="M13.832,6.549a.749.749,0,0,1,0,1.06L8.8,12.636a.75.75,0,0,1-1.06,0L5.352,10.243a.749.749,0,0,1,1.06-1.06l1.863,1.863,4.5-4.5a.75.75,0,0,1,1.06,0Zm5.352,3.044A9.592,9.592,0,1,1,9.592,0,9.587,9.587,0,0,1,19.184,9.592Zm-1.5,0a8.093,8.093,0,1,0-8.093,8.093A8.089,8.089,0,0,0,17.685,9.592Zm0,0" transform="translate(11 136)" fill="#fc7600"/>
  </g>
</svg>
