<svg xmlns="http://www.w3.org/2000/svg" width="93.524" height="84.024" viewBox="0 0 93.524 84.024">
  <g id="alert" transform="translate(1.609 -24.815)">
    <g id="Group_4890" data-name="Group 4890" transform="translate(0 26.315)">
      <g id="Group_4889" data-name="Group 4889" transform="translate(0 0)">
        <path id="Path_2902" data-name="Path 2902" d="M88.867,91.411,54.349,31.624a10.619,10.619,0,0,0-18.393,0L1.439,91.41a10.619,10.619,0,0,0,9.2,15.928H79.671a10.619,10.619,0,0,0,9.2-15.928Zm-4.582,7.974a5.274,5.274,0,0,1-4.614,2.664H10.636a5.328,5.328,0,0,1-4.614-7.992L40.539,34.27a5.328,5.328,0,0,1,9.229,0L84.285,94.056A5.275,5.275,0,0,1,84.285,99.384Z" transform="translate(0 -26.315)" fill="#ff0006" stroke="#fcfcfc" stroke-width="3"/>
      </g>
    </g>
    <g id="Group_4892" data-name="Group 4892" transform="translate(42.508 52.718)">
      <g id="Group_4891" data-name="Group 4891">
        <rect id="Rectangle_927" data-name="Rectangle 927" width="5.291" height="26.454" fill="#ff0006" stroke="#fcfcfc" stroke-width="3"/>
      </g>
    </g>
    <g id="Group_4894" data-name="Group 4894" transform="translate(41.626 84.463)">
      <g id="Group_4893" data-name="Group 4893" transform="translate(0 0)">
        <path id="Path_2903" data-name="Path 2903" d="M239.529,355.99a3.527,3.527,0,1,0,3.527,3.527A3.531,3.531,0,0,0,239.529,355.99Z" transform="translate(-236.002 -355.99)" fill="#ff0006" stroke="#fcfcfc" stroke-width="3"/>
      </g>
    </g>
  </g>
</svg>
