<svg id="Icon_Event_Rounded" data-name="Icon / Event / Rounded" xmlns="http://www.w3.org/2000/svg" width="16" height="16" viewBox="0 0 16 16">
  <rect id="Box" width="16" height="16" fill="none"/>
  <path id="Path_2017" data-name="Path 2017" d="M874.15,10.8h-7.4a.654.654,0,0,1-.617-.6v-6h8.633v6A.609.609,0,0,1,874.15,10.8ZM872.917.6v.6h-4.933V.6a.617.617,0,0,0-1.233,0v.6h-.617A1.221,1.221,0,0,0,864.9,2.4v8.4a1.221,1.221,0,0,0,1.233,1.2h8.633A1.221,1.221,0,0,0,876,10.8V2.4a1.221,1.221,0,0,0-1.233-1.2h-.617V.6a.617.617,0,0,0-1.233,0Zm0,6h-1.85a.654.654,0,0,0-.617.6V9a.654.654,0,0,0,.617.6h1.85a.654.654,0,0,0,.617-.6V7.2A.609.609,0,0,0,872.917,6.6Z" transform="translate(-863.1 2)" fill="#008afc"/>
</svg>
