<svg xmlns="http://www.w3.org/2000/svg" width="75.792" height="75.792" viewBox="0 0 75.792 75.792">
  <g id="check-mark" transform="translate(0 0)">
    <path id="Path_29922" data-name="Path 29922" d="M82.832,46.416A36.416,36.416,0,1,1,46.416,10,36.416,36.416,0,0,1,82.832,46.416Zm0,0" transform="translate(-8.519 -8.52)" fill="#008afc"/>
    <path id="Path_29923" data-name="Path 29923" d="M147.5,139.848l-17.641,17.64-7.722-7.722-8.374,8.374,7.722,7.722,8.374,8.374,26.014-26.014Zm0,0" transform="translate(-96.924 -119.146)" fill="#fff"/>
    <path id="Path_29924" data-name="Path 29924" d="M121.342,167.2a1.48,1.48,0,0,1-1.047-.434l-16.1-16.1a1.481,1.481,0,0,1,0-2.094l8.374-8.374a1.48,1.48,0,0,1,2.094,0l6.675,6.675,16.593-16.594a1.48,1.48,0,0,1,2.094,0l8.374,8.374a1.48,1.48,0,0,1,0,2.093l-26.014,26.015a1.48,1.48,0,0,1-1.047.433Zm-14-17.576,14,14L145.263,139.7l-6.28-6.281-16.594,16.594a1.48,1.48,0,0,1-2.093,0l-6.675-6.675Zm0,0" transform="translate(-88.405 -110.626)" fill="none"/>
    <path id="Path_29925" data-name="Path 29925" d="M37.887,75.792q-1.45,0-2.9-.111A37.888,37.888,0,1,1,68.7,59.984a1.48,1.48,0,1,1-2.4-1.728,34.936,34.936,0,1,0-8.036,8.036,1.48,1.48,0,1,1,1.728,2.4,37.891,37.891,0,0,1-22.1,7.1Zm0,0" transform="translate(0)" fill="none"/>
    <path id="Path_29926" data-name="Path 29926" d="M421.433,422.914a1.481,1.481,0,1,1,1.047-.434A1.491,1.491,0,0,1,421.433,422.914Zm0,0" transform="translate(-357.787 -357.787)"/>
  </g>
</svg>
