<svg xmlns="http://www.w3.org/2000/svg" width="33" height="33" viewBox="0 0 33 33">
  <g id="Group_14985" data-name="Group 14985" transform="translate(-20 -268)">
    <circle id="Ellipse_286" data-name="Ellipse 286" cx="16.5" cy="16.5" r="16.5" transform="translate(20 268)" fill="#51c569" opacity="0.1"/>
    <g id="cake" transform="translate(29 275)">
      <path id="Union_2" data-name="Union 2" d="M1,16a1,1,0,0,1-1-1v-1.78a2.974,2.974,0,0,0,4,.014,2.994,2.994,0,0,0,4,0,2.994,2.994,0,0,0,4,0,2.974,2.974,0,0,0,4-.014V15a1,1,0,0,1-1,1Zm11-5a2,2,0,0,1-4,0,2,2,0,0,1-4,0,2,2,0,0,1-4,0V10A1,1,0,0,1,1,9H15a1,1,0,0,1,1,1v1a2,2,0,0,1-4,0ZM2,8V6.5A1.5,1.5,0,0,1,3.5,5h4V4h1V5h4A1.5,1.5,0,0,1,14,6.5V8ZM7,2A6.618,6.618,0,0,1,8,0,6.618,6.618,0,0,1,9,2,1,1,0,1,1,7,2Z" transform="translate(0 0)" fill="#008afc"/>
    </g>
  </g>
</svg>
