<svg xmlns="http://www.w3.org/2000/svg" width="15.866" height="18.666" viewBox="0 0 15.866 18.666">
  <g id="wc_1_" data-name="wc (1)" transform="translate(-32)">
    <g id="Group_5940" data-name="Group 5940" transform="translate(32)">
      <g id="Group_5939" data-name="Group 5939" transform="translate(0)">
        <path id="Path_2501" data-name="Path 2501" d="M65.867,3.733A1.867,1.867,0,1,0,64,1.867,1.866,1.866,0,0,0,65.867,3.733Z" transform="translate(-62.6)" fill="#008afc"/>
        <path id="Path_2502" data-name="Path 2502" d="M257.867,3.733A1.867,1.867,0,1,0,256,1.867,1.866,1.866,0,0,0,257.867,3.733Z" transform="translate(-246.2)" fill="#008afc"/>
        <path id="Path_2503" data-name="Path 2503" d="M36.667,106.667h-2.8A1.872,1.872,0,0,0,32,108.534v5.133h1.4v7h3.733v-7h1.4v-5.133A1.872,1.872,0,0,0,36.667,106.667Z" transform="translate(-32 -102)" fill="#008afc"/>
        <path id="Path_2504" data-name="Path 2504" d="M208.69,107.945a1.861,1.861,0,0,0-1.769-1.279h-.107a1.861,1.861,0,0,0-1.769,1.279l-2.38,7.121h2.8v5.6h2.8v-5.6h2.8Z" transform="translate(-195.2 -102)" fill="#008afc"/>
      </g>
    </g>
  </g>
</svg>
