<svg xmlns="http://www.w3.org/2000/svg" width="17.05" height="17.05" viewBox="0 0 17.05 17.05">
  <g id="Group_2914" data-name="Group 2914" transform="translate(-27.95 -115.951)">
    <path id="Path_991" data-name="Path 991" d="M8.525,0A8.525,8.525,0,1,0,17.05,8.525,8.535,8.535,0,0,0,8.525,0Zm0,15.5A6.975,6.975,0,1,1,15.5,8.525,6.983,6.983,0,0,1,8.525,15.5Z" transform="translate(27.95 115.951)" fill="#fff"/>
    <path id="Path_992" data-name="Path 992" d="M146.039,230a1.033,1.033,0,1,0,1.033,1.033A1.034,1.034,0,0,0,146.039,230Z" transform="translate(-109.564 -102.166)" fill="#fff"/>
    <path id="Path_993" data-name="Path 993" d="M112.817,60a2.846,2.846,0,0,0-2.843,2.843.775.775,0,1,0,1.55,0,1.293,1.293,0,1,1,1.293,1.293.775.775,0,0,0-.775.775v1.547a.775.775,0,0,0,1.55,0v-.881A2.843,2.843,0,0,0,112.817,60Z" transform="translate(-76.342 59.051)" fill="#fff"/>
  </g>
</svg>
