<svg xmlns="http://www.w3.org/2000/svg" width="13" height="17.333" viewBox="0 0 13 17.333">
  <g id="padlock" transform="translate(-3)">
    <path id="Path_51343" data-name="Path 51343" d="M14.375,19.833H4.625A1.627,1.627,0,0,1,3,18.208V10.625A1.627,1.627,0,0,1,4.625,9h9.75A1.627,1.627,0,0,1,16,10.625v7.583A1.627,1.627,0,0,1,14.375,19.833Zm-9.75-9.75a.542.542,0,0,0-.542.542v7.583a.542.542,0,0,0,.542.542h9.75a.542.542,0,0,0,.542-.542V10.625a.542.542,0,0,0-.542-.542Z" transform="translate(0 -2.5)" fill="#fff"/>
    <path id="Path_51344" data-name="Path 51344" d="M14.125,7.583a.542.542,0,0,1-.542-.542V4.333a3.25,3.25,0,0,0-6.5,0V7.042A.542.542,0,0,1,6,7.042V4.333a4.333,4.333,0,0,1,8.667,0V7.042A.542.542,0,0,1,14.125,7.583Z" transform="translate(-0.833)" fill="#fff"/>
    <path id="Path_51345" data-name="Path 51345" d="M11.444,15.889a1.444,1.444,0,1,1,1.444-1.444A1.446,1.446,0,0,1,11.444,15.889Zm0-1.806a.361.361,0,1,0,.361.361A.362.362,0,0,0,11.444,14.083Z" transform="translate(-1.944 -3.611)" fill="#fff"/>
    <path id="Path_51346" data-name="Path 51346" d="M11.792,18.819a.542.542,0,0,1-.542-.542V16.292a.542.542,0,0,1,1.083,0v1.986A.542.542,0,0,1,11.792,18.819Z" transform="translate(-2.292 -4.375)" fill="#fff"/>
  </g>
</svg>
