<svg xmlns="http://www.w3.org/2000/svg" width="22.9" height="20.127" viewBox="0 0 22.9 20.127">
  <g id="shopping-cart" transform="translate(0 0)">
    <path id="Path_320" data-name="Path 320" d="M7.378,13.418H19.545a.671.671,0,0,0,.645-.487l2.684-9.393a.671.671,0,0,0-.645-.855H5.831L5.351.525A.671.671,0,0,0,4.7,0H.671a.671.671,0,0,0,0,1.342H4.158l2.422,10.9a2.012,2.012,0,0,0,.8,3.859H19.545a.671.671,0,0,0,0-1.342H7.38a.671.671,0,0,1,0-1.342ZM21.339,4.026l-2.3,8.051H7.918L6.129,4.026Zm0,0" fill="#fff"/>
    <path id="Path_321" data-name="Path 321" d="M150,362.013A2.013,2.013,0,1,0,152.013,360,2.015,2.015,0,0,0,150,362.013Zm2.013-.671a.671.671,0,1,1-.671.671A.672.672,0,0,1,152.013,361.342Zm0,0" transform="translate(-143.291 -343.898)" fill="#fff"/>
    <path id="Path_322" data-name="Path 322" d="M362,362.013A2.013,2.013,0,1,0,364.013,360,2.015,2.015,0,0,0,362,362.013Zm2.013-.671a.671.671,0,1,1-.671.671A.672.672,0,0,1,364.013,361.342Zm0,0" transform="translate(-345.809 -343.898)" fill="#fff"/>
  </g>
</svg>
