<svg id="check_1_" data-name="check (1)" xmlns="http://www.w3.org/2000/svg" width="82" height="82" viewBox="0 0 82 82">
  <g id="Group_4772" data-name="Group 4772">
    <g id="Group_4771" data-name="Group 4771">
      <path id="Path_2861" data-name="Path 2861" d="M41,0A41,41,0,1,0,82,41,41,41,0,0,0,41,0Zm0,79.355A38.355,38.355,0,1,1,79.355,41,38.355,38.355,0,0,1,41,79.355Z" fill="#4ac14d"/>
      <path id="Path_2862" data-name="Path 2862" d="M154.792,156.47l-26.839,26.839L114.34,169.7a1.323,1.323,0,0,0-1.87,1.87l14.548,14.548a1.323,1.323,0,0,0,1.87,0l27.774-27.774a1.323,1.323,0,0,0-1.87-1.87Z" transform="translate(-93.566 -130.292)" fill="#4ac14d"/>
    </g>
  </g>
</svg>
