<svg xmlns="http://www.w3.org/2000/svg" width="25" height="25" viewBox="0 0 25 25">
  <g id="Group_14785" data-name="Group 14785" transform="translate(-146 -1056)">
    <circle id="Ellipse_371" data-name="Ellipse 371" cx="12.5" cy="12.5" r="12.5" transform="translate(146 1056)" fill="#fff"/>
    <path id="heart" d="M12.708,1.2A3.711,3.711,0,0,0,9.947,0,3.472,3.472,0,0,0,7.778.749a4.437,4.437,0,0,0-.877.916A4.435,4.435,0,0,0,6.025.749,3.472,3.472,0,0,0,3.856,0,3.712,3.712,0,0,0,1.1,1.2,4.314,4.314,0,0,0,0,4.148,5.137,5.137,0,0,0,1.369,7.511,29.191,29.191,0,0,0,4.8,10.727c.475.4,1.013.863,1.572,1.352a.81.81,0,0,0,1.067,0c.559-.489,1.1-.948,1.572-1.353a29.175,29.175,0,0,0,3.427-3.216A5.137,5.137,0,0,0,13.8,4.148,4.314,4.314,0,0,0,12.708,1.2Zm0,0" transform="translate(151.499 1062.5)" fill="#fc7600" stroke="#fc7600" stroke-width="1"/>
  </g>
</svg>
