<svg id="globe" xmlns="http://www.w3.org/2000/svg" width="22.26" height="22.26" viewBox="0 0 22.26 22.26">
  <g id="Group_1550" data-name="Group 1550">
    <path id="Path_994" data-name="Path 994" d="M11.13,0A11.13,11.13,0,1,0,22.26,11.13,11.159,11.159,0,0,0,11.13,0Zm0,1.3a9.787,9.787,0,0,1,3.107.5,1.9,1.9,0,0,0-.3,1.089,4.4,4.4,0,0,0,.619,1.943,3.469,3.469,0,0,1,.482,1.36c0,.229-.055.282-.242.345a5.76,5.76,0,0,1-1.478.1A4.379,4.379,0,0,0,9.727,7.941c-.18.18-.277.189-.9-.122a1.878,1.878,0,0,0-2.4.122,2.173,2.173,0,0,0-.578,1.981c-.638-.248-1.52-.362-1.628-.636-.05-.127-.128-.678.965-2.453.406-.658.893-1.623.443-2.4a1.517,1.517,0,0,0-.986-.678A9.785,9.785,0,0,1,11.13,1.3Zm0,19.651a9.82,9.82,0,0,1-7.641-16c.752-.006.955.085,1.009.134.007.043.027.322-.425,1.055C3.007,7.879,2.688,8.961,3,9.765c.428,1.086,1.773,1.088,2.5,1.43a15.421,15.421,0,0,1,2.928,1.616v1.1c0,.817.772,1.258,1.391,1.613.251.144.774.443.81.589a14,14,0,0,0,.573,4.846Zm1.7-.705a.977.977,0,0,1-.251.518c-.166-.231-.634-1.188-.634-4.659,0-.882-.813-1.347-1.467-1.721a3.149,3.149,0,0,1-.739-.506V12.806a1.262,1.262,0,0,0-.085-.473,3.61,3.61,0,0,0,2.012-.771,1.088,1.088,0,0,1,.728-.305H12.4a1.771,1.771,0,0,1,.3.423,3.77,3.77,0,0,0,2.875,1.987,2.564,2.564,0,0,1,.555.159.4.4,0,0,1,.007.081c0,1.346-1.036,2.321-1.95,3.181-.733.69-1.366,1.285-1.366,2.041C12.826,19.235,12.825,20.193,12.826,20.251Zm1.284.242a1.51,1.51,0,0,0,.015-.278c0-.088,0-1.079,0-1.086s.01-.1.208-.334a9.466,9.466,0,0,1,.752-.757c1-.937,2.36-2.221,2.36-4.131a1.317,1.317,0,0,0-.606-1.178,2.946,2.946,0,0,0-.981-.336,2.517,2.517,0,0,1-2.035-1.382A1.686,1.686,0,0,0,12.39,9.952,2.341,2.341,0,0,0,10.9,10.5a2.555,2.555,0,0,1-1.811.548A1.967,1.967,0,0,1,7.2,9.928a.962.962,0,0,1,.142-1.065c.18-.18.277-.189.9.122a1.878,1.878,0,0,0,2.4-.122,3.13,3.13,0,0,1,2.667-.91,6.283,6.283,0,0,0,1.9-.171A1.566,1.566,0,0,0,16.345,6.2a4.4,4.4,0,0,0-.619-1.943,3.469,3.469,0,0,1-.482-1.36c0-.306.066-.477.4-.491a9.825,9.825,0,0,1-1.537,18.087Z" fill="#fff"/>
  </g>
</svg>
