<svg id="add" xmlns="http://www.w3.org/2000/svg" width="21.075" height="21.075" viewBox="0 0 21.075 21.075">
  <g id="Group_14717" data-name="Group 14717">
    <g id="Group_14716" data-name="Group 14716">
      <path id="Path_51341" data-name="Path 51341" d="M10.538,0A10.538,10.538,0,1,0,21.075,10.538,10.549,10.549,0,0,0,10.538,0Zm0,19.443a8.905,8.905,0,1,1,8.905-8.905A8.916,8.916,0,0,1,10.538,19.443Z" fill="#fff"/>
    </g>
  </g>
  <g id="Group_14719" data-name="Group 14719" transform="translate(5.64 5.567)">
    <g id="Group_14718" data-name="Group 14718">
      <path id="Path_51342" data-name="Path 51342" d="M146,139.319h-3.265v-3.265a.816.816,0,1,0-1.632,0v3.265h-3.265a.816.816,0,0,0,0,1.633H141.1v3.265a.816.816,0,1,0,1.632,0v-3.265H146a.816.816,0,0,0,0-1.633Z" transform="translate(-137.022 -135.238)" fill="#fff"/>
    </g>
  </g>
</svg>
