<svg xmlns="http://www.w3.org/2000/svg" width="12.228" height="13.01" viewBox="0 0 12.228 13.01">
  <path id="Path_2528" data-name="Path 2528" d="M26.462,3.736a.542.542,0,0,0-.767,0L19.179,10.29a2.168,2.168,0,0,1-3.065-3.068L22.823.478A1.355,1.355,0,0,1,24.738,2.4L19.18,7.954h0a.542.542,0,0,1-.765-.767L21.1,4.5a.542.542,0,1,0-.767-.767L17.647,6.421a1.626,1.626,0,0,0,2.3,2.3l0,0L25.5,3.162a2.439,2.439,0,0,0-3.449-3.45L15.346,6.457a3.253,3.253,0,0,0,4.6,4.6L26.464,4.5A.542.542,0,0,0,26.462,3.736Z" transform="translate(-14.394 1.002)"/>
</svg>
