<svg xmlns="http://www.w3.org/2000/svg" width="15.374" height="15.416" viewBox="0 0 15.374 15.416">
  <g id="edit-svgrepo-com" transform="translate(-0.672 0)">
    <g id="Group_478" data-name="Group 478" transform="translate(0.672 0)">
      <path id="Path_132" data-name="Path 132" d="M74.6,13.179l3.89-1.6a2.164,2.164,0,0,0,.261-.195L85.157,3.57a.7.7,0,0,0-.1-.914L82.017.138a.624.624,0,0,0-.883.1L74.7,8.045a1.169,1.169,0,0,0-.132.3l-.817,4.151C73.706,13.2,74.275,13.324,74.6,13.179ZM81.691,1.54l2.058,1.7-5.584,6.822L76.125,8.375Zm-6.071,8.1,1.4,1.156-1.8.742Z" transform="translate(-71.448 0)" fill="#00baf2"/>
      <path id="Path_133" data-name="Path 133" d="M15.392,384.422H4.409s-2.278.107-2.363-.478c0-.031-.057-.176.239-.534a.648.648,0,1,0-.98-.848c-.622.751-.786,1.4-.49,2,.8,1.493,3.5,1.141,3.626,1.172H15.392a.654.654,0,0,0,0-1.307Z" transform="translate(-0.672 -370.328)" fill="#00baf2"/>
    </g>
  </g>
</svg>
