<svg id="envelope" xmlns="http://www.w3.org/2000/svg" width="24.182" height="19" viewBox="0 0 24.182 19">
  <g id="Group_1813" data-name="Group 1813">
    <path id="Path_5064" data-name="Path 5064" d="M2.321,60.677Q2.78,61,5.087,62.6t3.536,2.462q.135.095.573.412t.729.513q.29.2.7.438a4.071,4.071,0,0,0,.776.364,2.138,2.138,0,0,0,.675.121H12.1a2.14,2.14,0,0,0,.675-.121,4.075,4.075,0,0,0,.776-.364q.411-.243.7-.438t.729-.513q.438-.317.574-.412l6.315-4.386a6.411,6.411,0,0,0,1.646-1.66,3.564,3.564,0,0,0,.661-2.037,2.177,2.177,0,0,0-2.159-2.159H2.159a1.927,1.927,0,0,0-1.6.7A2.724,2.724,0,0,0,0,57.276a3.152,3.152,0,0,0,.742,1.842A6.7,6.7,0,0,0,2.321,60.677Z" transform="translate(0 -54.82)" fill="#fff"/>
    <path id="Path_5065" data-name="Path 5065" d="M22.832,185.611q-4.426,3-6.72,4.656-.769.567-1.248.884a7.7,7.7,0,0,1-1.275.648,3.883,3.883,0,0,1-1.484.331h-.027a3.884,3.884,0,0,1-1.484-.331,7.708,7.708,0,0,1-1.275-.648q-.479-.317-1.248-.884-1.822-1.336-6.707-4.656A7.148,7.148,0,0,1,0,184.437v10.714a2.079,2.079,0,0,0,.634,1.525,2.079,2.079,0,0,0,1.525.634H22.023a2.166,2.166,0,0,0,2.159-2.159V184.437A7.442,7.442,0,0,1,22.832,185.611Z" transform="translate(0 -178.311)" fill="#fff"/>
  </g>
</svg>
