<svg xmlns="http://www.w3.org/2000/svg" width="18.334" height="16.421" viewBox="0 0 18.334 16.421">
  <path id="heart" d="M15.959,1.509A4.661,4.661,0,0,0,12.492,0,4.361,4.361,0,0,0,9.768.94a5.572,5.572,0,0,0-1.1,1.15A5.569,5.569,0,0,0,7.566.94,4.36,4.36,0,0,0,4.843,0,4.661,4.661,0,0,0,1.375,1.509,5.418,5.418,0,0,0,0,5.209,6.452,6.452,0,0,0,1.72,9.432a36.66,36.66,0,0,0,4.3,4.039c.6.508,1.272,1.084,1.974,1.7a1.018,1.018,0,0,0,1.34,0c.7-.614,1.378-1.19,1.975-1.7a36.639,36.639,0,0,0,4.3-4.039,6.451,6.451,0,0,0,1.719-4.223,5.418,5.418,0,0,0-1.375-3.7Zm0,0" transform="translate(0.5 0.5)" fill="none" stroke="#fff" stroke-width="1"/>
</svg>
