<svg xmlns="http://www.w3.org/2000/svg" width="26.568" height="23.693" viewBox="0 0 26.568 23.693">
  <g id="web-page-home" transform="translate(-3 -26.353)">
    <g id="Group_1715" data-name="Group 1715" transform="translate(0 26.353)">
      <path id="Path_2481" data-name="Path 2481" d="M.918,40.463H3.082v8.656a.93.93,0,0,0,.927.927h6.338a.93.93,0,0,0,.927-.927V42.781h3.864v6.338a.93.93,0,0,0,.927.927h6.028a.93.93,0,0,0,.927-.927V40.463H25.65a.924.924,0,0,0,.649-1.577L14.211,26.628a.924.924,0,0,0-1.3-.015L.284,38.87a.928.928,0,0,0-.216,1.02A.9.9,0,0,0,.918,40.463ZM13.531,28.591l9.893,10.017H22.095a.93.93,0,0,0-.927.927v8.656H16.994V41.854a.93.93,0,0,0-.927-.927H10.347a.93.93,0,0,0-.927.927v6.338H4.937V39.535a.93.93,0,0,0-.927-.927h-.8Z" transform="translate(3 -26.353)" fill="#008afc"/>
    </g>
  </g>
</svg>
