<svg xmlns="http://www.w3.org/2000/svg" width="15.482" height="15.172" viewBox="0 0 15.482 15.172">
  <g id="Group_2915" data-name="Group 2915" transform="translate(-27.949 -175.147)">
    <path id="Path_989" data-name="Path 989" d="M15.3,83.416a.594.594,0,0,0-.435-.184H12.695V80.388l1.674-1.674a.616.616,0,1,0-.871-.871l-1.674,1.674H3.658L1.984,77.843a.608.608,0,0,0-.871,0,.608.608,0,0,0,0,.871l1.674,1.674v2.845H.619a.6.6,0,0,0-.435.184.607.607,0,0,0,0,.871.6.6,0,0,0,.435.184H2.787a5.788,5.788,0,0,0,.561,2.651l-1.954,2.2a.644.644,0,0,0,.048.88.629.629,0,0,0,.416.155.618.618,0,0,0,.465-.2l1.771-2,.145.136a3.4,3.4,0,0,0,.421.314q.286.189.639.378a3.96,3.96,0,0,0,.842.319,3.784,3.784,0,0,0,.982.131v-8.67H8.36v8.67A3.642,3.642,0,0,0,9.3,89.3a4.457,4.457,0,0,0,.794-.281,6.123,6.123,0,0,0,.629-.353q.31-.2.406-.276a1.872,1.872,0,0,0,.145-.126l1.916,1.906a.608.608,0,0,0,.871,0,.608.608,0,0,0,0-.871l-2.013-2.022a5.64,5.64,0,0,0,.648-2.806h2.167a.615.615,0,0,0,.435-1.055Z" transform="translate(27.949 99.965)" fill="#fff"/>
    <path id="Path_990" data-name="Path 990" d="M142.343,5.479a3.1,3.1,0,0,0-5.288,2.192h6.192A2.985,2.985,0,0,0,142.343,5.479Z" transform="translate(-104.461 170.573)" fill="#fff"/>
  </g>
</svg>
