<svg id="Group_684" data-name="Group 684" xmlns="http://www.w3.org/2000/svg" width="18" height="18" viewBox="0 0 18 18">
  <path id="Path_693" data-name="Path 693" d="M9.036,3.571A5.464,5.464,0,1,0,14.5,9.036,5.464,5.464,0,0,0,9.036,3.571ZM1,9.036a8.036,8.036,0,1,1,8.036,8.036A8.036,8.036,0,0,1,1,9.036Z" transform="translate(-1 -1)" fill="#008afc" fill-rule="evenodd"/>
  <path id="Path_694" data-name="Path 694" d="M10.377,10.377a1.286,1.286,0,0,1,1.818,0l3.857,3.857a1.286,1.286,0,0,1-1.818,1.818l-3.857-3.857A1.286,1.286,0,0,1,10.377,10.377Z" transform="translate(1.571 1.571)" fill="#008afc" fill-rule="evenodd"/>
</svg>
