<svg id="search" xmlns="http://www.w3.org/2000/svg" width="22.968" height="22.968" viewBox="0 0 22.968 22.968">
  <rect id="Rectangle_176" data-name="Rectangle 176" width="22.968" height="22.968" transform="translate(0 0)" fill="none"/>
  <path id="Path_99" data-name="Path 99" d="M22.84,20.829l-4.74-4.74a9.835,9.835,0,0,0,2.011-6.033A9.994,9.994,0,0,0,10.056,0,9.994,9.994,0,0,0,0,10.056,9.994,9.994,0,0,0,10.056,20.111,9.835,9.835,0,0,0,16.089,18.1l4.74,4.74ZM2.873,10.056a7.113,7.113,0,0,1,7.183-7.183,7.113,7.113,0,0,1,7.183,7.183,7.113,7.113,0,0,1-7.183,7.183A7.113,7.113,0,0,1,2.873,10.056Z" transform="translate(0 0)" fill="#3c4043"/>
</svg>
