<svg xmlns="http://www.w3.org/2000/svg" width="20.2" height="20.2" viewBox="0 0 20.2 20.2">
  <g id="Settings" transform="translate(-0.003 0)">
    <g id="Group_1892" data-name="Group 1892" transform="translate(0.003 0)">
      <path id="Path_5101" data-name="Path 5101" d="M20.139,8.979a.658.658,0,0,0-.649-.5A2.23,2.23,0,0,1,17.963,4.6a.561.561,0,0,0,.061-.762,9.994,9.994,0,0,0-1.6-1.616.562.562,0,0,0-.768.062,2.328,2.328,0,0,1-2.519.566A2.243,2.243,0,0,1,11.774.657a.56.56,0,0,0-.5-.59A10.084,10.084,0,0,0,9.006.061a.562.562,0,0,0-.5.578A2.247,2.247,0,0,1,7.123,2.794a2.334,2.334,0,0,1-2.5-.569.563.563,0,0,0-.762-.064A10.032,10.032,0,0,0,2.226,3.776a.562.562,0,0,0,.06.768,2.238,2.238,0,0,1,.565,2.52,2.335,2.335,0,0,1-2.2,1.365.549.549,0,0,0-.583.5,10.118,10.118,0,0,0,0,2.3.668.668,0,0,0,.662.5A2.215,2.215,0,0,1,2.806,13.1a2.246,2.246,0,0,1-.565,2.5.561.561,0,0,0-.061.761,10.031,10.031,0,0,0,1.6,1.617.562.562,0,0,0,.769-.061,2.324,2.324,0,0,1,2.518-.566,2.24,2.24,0,0,1,1.366,2.192.561.561,0,0,0,.5.59,10.052,10.052,0,0,0,2.272.006.562.562,0,0,0,.5-.578,2.245,2.245,0,0,1,1.382-2.154,2.331,2.331,0,0,1,2.5.569.564.564,0,0,0,.762.064,10.055,10.055,0,0,0,1.634-1.615.561.561,0,0,0-.06-.768,2.238,2.238,0,0,1-.566-2.52,2.261,2.261,0,0,1,2.066-1.369l.125,0a.562.562,0,0,0,.591-.5A10.109,10.109,0,0,0,20.139,8.979ZM10.119,13.491a3.369,3.369,0,1,1,3.369-3.369A3.373,3.373,0,0,1,10.119,13.491Z" transform="translate(-0.003 0)" fill="#fff" fill-rule="evenodd"/>
    </g>
  </g>
</svg>
