<svg xmlns="http://www.w3.org/2000/svg" width="20.54" height="19.44" viewBox="0 0 20.54 19.44">
  <g id="contact" transform="translate(0 -13.7)">
    <g id="Group_1891" data-name="Group 1891" transform="translate(0 13.7)">
      <g id="Group_1890" data-name="Group 1890" transform="translate(0 0)">
        <path id="Path_5099" data-name="Path 5099" d="M15.645,117.418l-3.462-2.308a.357.357,0,0,0-.477.077l-1.008,1.3a1.081,1.081,0,0,1-1.385.285l-.186-.1a12.179,12.179,0,0,1-3.172-2.485,12.163,12.163,0,0,1-2.485-3.172l-.1-.186a1.08,1.08,0,0,1,.285-1.385l1.3-1.009a.356.356,0,0,0,.077-.477L2.717,104.49a.355.355,0,0,0-.477-.107l-1.449.869a1.394,1.394,0,0,0-.638.822c-.476,1.733-.076,4.767,4.533,9.375s7.642,5.01,9.376,4.533a1.394,1.394,0,0,0,.822-.638l.868-1.449A.354.354,0,0,0,15.645,117.418Z" transform="translate(0 -100.695)" fill="#fff"/>
        <path id="Path_5100" data-name="Path 5100" d="M115.347,13.758a.2.2,0,0,0-.143-.058H99.832a.2.2,0,0,0-.2.2v5.341l.872,1.308a1.093,1.093,0,0,1-.237,1.463L98.97,23.021a.35.35,0,0,0-.095.448l.106.193a9.25,9.25,0,0,0,1.224,1.784h15a.2.2,0,0,0,.2-.2V13.9A.2.2,0,0,0,115.347,13.758ZM104.924,20.43v0l-3.758,4.026a.367.367,0,1,1-.537-.5l3.758-4.025a.367.367,0,1,1,.537.5Zm2.594-.289a1.216,1.216,0,0,1-.734-.242l-6.132-4.65a.368.368,0,0,1,.445-.585l6.129,4.65a.5.5,0,0,0,.582,0l6.131-4.65a.367.367,0,0,1,.444.585l-6.132,4.65A1.216,1.216,0,0,1,107.518,20.141Zm6.894,4.332a.367.367,0,0,1-.519-.018l-3.758-4.026a.367.367,0,0,1,.537-.5l3.757,4.025A.367.367,0,0,1,114.412,24.473Z" transform="translate(-94.866 -13.7)" fill="#fff"/>
      </g>
    </g>
  </g>
</svg>
