<svg id="telephone" xmlns="http://www.w3.org/2000/svg" width="23.279" height="23.279" viewBox="0 0 23.279 23.279">
  <g id="Group_1814" data-name="Group 1814">
    <path id="Path_5066" data-name="Path 5066" d="M17.7,59.3a1.631,1.631,0,0,0-2.466,0c-.576.572-1.153,1.143-1.72,1.725a.34.34,0,0,1-.475.087c-.373-.2-.77-.368-1.129-.591A17.883,17.883,0,0,1,7.6,56.6a10.214,10.214,0,0,1-1.545-2.475.355.355,0,0,1,.087-.455c.576-.557,1.138-1.129,1.705-1.7a1.637,1.637,0,0,0,0-2.524c-.451-.455-.9-.9-1.352-1.356s-.925-.935-1.4-1.4a1.642,1.642,0,0,0-2.466,0C2.052,47.269,1.5,47.855.9,48.417a2.807,2.807,0,0,0-.882,1.894,8.025,8.025,0,0,0,.62,3.454,20.988,20.988,0,0,0,3.725,6.205A23.052,23.052,0,0,0,12,65.944a11.041,11.041,0,0,0,4.229,1.23,3.1,3.1,0,0,0,2.659-1.012c.494-.552,1.051-1.056,1.574-1.584a1.648,1.648,0,0,0,.01-2.509Q19.094,60.68,17.7,59.3Z" transform="translate(-0.006 -43.902)" fill="#fff"/>
    <path id="Path_5067" data-name="Path 5067" d="M243.105,102.888l1.788-.305A8.024,8.024,0,0,0,238.106,96l-.252,1.8a6.2,6.2,0,0,1,5.251,5.091Z" transform="translate(-226.332 -91.35)" fill="#fff"/>
    <path id="Path_5068" data-name="Path 5068" d="M250.563,3.769A13.18,13.18,0,0,0,243.006,0l-.252,1.8a11.5,11.5,0,0,1,9.732,9.432l1.788-.305A13.277,13.277,0,0,0,250.563,3.769Z" transform="translate(-230.995)" fill="#fff"/>
  </g>
</svg>
